<svg width="41" height="41" viewBox="0 0 41 41" fill="none" xmlns="http://www.w3.org/2000/svg">
<path d="M7.0145 0H33.4504C35.2707 0 37.0165 0.72313 38.3037 2.01031C39.5909 3.29749 40.314 5.04328 40.314 6.86362V33.2995C40.314 35.1198 39.5909 36.8655 38.3038 38.1526C37.0166 39.4397 35.2709 40.1628 33.4507 40.1628H7.01421C5.19399 40.1628 3.44832 39.4398 2.1612 38.1527C0.87409 36.8656 0.150957 35.12 0.150879 33.2998L0.150879 6.86392C0.15084 5.96255 0.328345 5.07 0.673257 4.23723C1.01817 3.40446 1.52373 2.64779 2.16108 2.01041C2.79843 1.37303 3.55509 0.867438 4.38784 0.52249C5.22059 0.177543 6.11313 -8.27242e-10 7.0145 0V0Z" fill="#32BA46"/>
<path d="M20.2326 35.4598C17.5389 35.4583 14.8932 34.7462 12.5627 33.3952L6.57126 35.4598L7.80246 29.1146C5.87966 26.496 4.84652 23.3302 4.85454 20.0814C4.85454 17.0397 5.75652 14.0663 7.44641 11.5372C9.13631 9.00805 11.5382 7.03685 14.3484 5.87283C17.1586 4.70881 20.2509 4.40425 23.2342 4.99766C26.2174 5.59108 28.9578 7.05581 31.1086 9.20664C33.2594 11.3575 34.7241 14.0978 35.3175 17.0811C35.911 20.0644 35.6064 23.1566 34.4424 25.9668C33.2784 28.777 31.3072 31.1789 28.7781 32.8688C26.249 34.5587 23.2755 35.4607 20.2338 35.4607L20.2326 35.4598ZM12.8391 30.8801L13.3022 31.1704C16.0836 32.9079 19.4151 33.5399 22.6396 32.9417C25.864 32.3436 28.7471 30.5586 30.7202 27.9391C32.6932 25.3195 33.6128 22.0557 33.2975 18.7914C32.9823 15.5271 31.4551 12.4996 29.0172 10.306C26.5793 8.11247 23.4079 6.91226 20.1286 6.94219C16.8493 6.97213 13.7003 8.23002 11.3028 10.4677C8.90543 12.7054 7.43373 15.7603 7.17811 19.0298C6.9225 22.2993 7.90153 25.5458 9.92204 28.1289L10.2429 28.5406L9.57007 32.0073L12.8391 30.8801Z" fill="white"/>
<path d="M12.4694 14.1731C12.4694 14.1731 13.3713 12.5961 14.1067 12.5058C14.8422 12.4155 15.7896 12.4155 16.0449 12.896C16.3001 13.3765 17.4419 16.1713 17.4419 16.1713C17.4965 16.3268 17.5153 16.4926 17.4971 16.6564C17.4789 16.8202 17.424 16.9778 17.3367 17.1175C17.0425 17.5237 16.7161 17.9055 16.3607 18.2594C16.2547 18.4029 16.1976 18.5766 16.1976 18.755C16.1976 18.9334 16.2547 19.1071 16.3607 19.2506C16.9964 20.2017 17.7209 21.0903 18.5244 21.9045C19.7271 23.1101 22.0387 23.9679 22.0387 23.9679C22.1354 23.9791 22.2334 23.9701 22.3266 23.9416C22.4197 23.9131 22.5059 23.8656 22.5797 23.8021C22.79 23.5918 23.9324 22.165 23.9324 22.165C24.0494 22.0272 24.2096 21.933 24.3869 21.8976C24.5642 21.8622 24.7483 21.8877 24.9093 21.9701C25.5171 22.248 28.1533 23.5621 28.1533 23.5621C28.2578 23.6152 28.3434 23.6992 28.3986 23.8026C28.4537 23.906 28.4757 24.0239 28.4615 24.1402C28.4615 24.606 28.273 25.7455 27.8878 26.1304C27.5026 26.5153 26.3757 27.7033 24.6825 27.7033C22.9894 27.7033 18.9587 26.3257 16.8109 24.1785C14.6631 22.0312 12.7549 19.8514 12.3044 17.8688C11.8539 15.8863 11.9137 14.99 12.4694 14.1731Z" fill="white"/>
</svg>
